<svg width="200" height="22" viewBox="0 0 128 24" fill="none" xmlns="http://www.w3.org/2000/svg">
<path d="M16.968 25V18.196H15.834V10.804C15.834 9.628 15.554 8.746 14.994 8.158C14.434 7.57 13.538 7.276 12.306 7.276C11.69 7.276 10.878 7.29 9.87 7.318C8.862 7.346 7.826 7.388 6.762 7.444C5.698 7.5 4.732 7.556 3.864 7.612V1.942C4.508 1.886 5.264 1.83 6.132 1.774C7 1.718 7.896 1.676 8.82 1.64799C9.744 1.62 10.612 1.606 11.424 1.606C13.776 1.606 15.75 1.942 17.346 2.614C18.97 3.286 20.202 4.308 21.042 5.68C21.882 7.024 22.302 8.76 22.302 10.888V25H16.968ZM9.618 25.588C7.966 25.588 6.51 25.294 5.25 24.706C4.018 24.118 3.052 23.278 2.352 22.186C1.652 21.066 1.302 19.736 1.302 18.196C1.302 16.516 1.736 15.144 2.604 14.08C3.472 12.988 4.69 12.19 6.258 11.686C7.826 11.154 9.632 10.888 11.676 10.888H16.59V14.626H11.634C10.458 14.626 9.548 14.92 8.904 15.508C8.288 16.068 7.98 16.838 7.98 17.818C7.98 18.742 8.288 19.498 8.904 20.086C9.548 20.646 10.458 20.926 11.634 20.926C12.39 20.926 13.062 20.8 13.65 20.548C14.266 20.268 14.77 19.806 15.162 19.162C15.554 18.518 15.778 17.622 15.834 16.474L17.43 18.154C17.29 19.75 16.898 21.094 16.254 22.186C15.638 23.278 14.77 24.118 13.65 24.706C12.558 25.294 11.214 25.588 9.618 25.588Z" fill="white"/>
<path d="M28.0035 25V1.984H33.3375V11.854H32.9595C32.9595 9.502 33.2535 7.542 33.8415 5.974C34.4575 4.406 35.3815 3.23 36.6135 2.446C37.8455 1.662 39.3435 1.27 41.1075 1.27H41.4015C44.0895 1.27 46.1335 2.152 47.5335 3.916C48.9615 5.652 49.6755 8.298 49.6755 11.854V25H42.9555V11.476C42.9555 10.244 42.5915 9.236 41.8635 8.452C41.1355 7.668 40.1555 7.276 38.9235 7.276C37.6635 7.276 36.6415 7.682 35.8575 8.494C35.1015 9.278 34.7235 10.314 34.7235 11.602V25H28.0035Z" fill="white"/>
<path d="M64.1379 25.714C60.8619 25.714 58.2999 25.042 56.4519 23.698C54.6039 22.354 53.6239 20.464 53.5119 18.028H59.4759C59.5879 18.756 60.0219 19.414 60.7779 20.002C61.5619 20.562 62.7239 20.842 64.2639 20.842C65.4399 20.842 66.4059 20.646 67.1619 20.254C67.9459 19.834 68.3379 19.246 68.3379 18.49C68.3379 17.818 68.0439 17.286 67.4559 16.894C66.8679 16.474 65.8179 16.18 64.3059 16.012L62.4999 15.844C59.7279 15.564 57.6419 14.794 56.2419 13.534C54.8699 12.274 54.1839 10.664 54.1839 8.704C54.1839 7.08 54.5899 5.722 55.4019 4.63C56.2139 3.538 57.3339 2.712 58.7619 2.152C60.2179 1.592 61.8699 1.312 63.7179 1.312C66.6859 1.312 69.0799 1.97 70.8999 3.286C72.7199 4.574 73.6719 6.45 73.7559 8.914H67.7919C67.6799 8.158 67.2879 7.528 66.6159 7.024C65.9439 6.492 64.9499 6.226 63.6339 6.226C62.5979 6.226 61.7719 6.422 61.1559 6.814C60.5399 7.206 60.2319 7.738 60.2319 8.41C60.2319 9.054 60.4979 9.544 61.0299 9.88C61.5619 10.216 62.4299 10.454 63.6339 10.594L65.4399 10.762C68.2679 11.07 70.4659 11.854 72.0339 13.114C73.6019 14.374 74.3859 16.068 74.3859 18.196C74.3859 19.736 73.9659 21.08 73.1259 22.228C72.2859 23.348 71.0959 24.216 69.5559 24.832C68.0159 25.42 66.2099 25.714 64.1379 25.714Z" fill="white"/>
<path d="M89.2818 25.798C87.3218 25.798 85.5858 25.462 84.0738 24.79C82.5898 24.118 81.3438 23.222 80.3358 22.102C79.3558 20.954 78.5998 19.68 78.0678 18.28C77.5638 16.852 77.3118 15.396 77.3118 13.912V13.072C77.3118 11.532 77.5638 10.062 78.0678 8.662C78.5998 7.234 79.3558 5.96 80.3358 4.84C81.3158 3.72 82.5338 2.838 83.9898 2.194C85.4738 1.522 87.1538 1.186 89.0298 1.186C91.4938 1.186 93.5658 1.746 95.2458 2.866C96.9538 3.958 98.2558 5.4 99.1518 7.192C100.048 8.956 100.496 10.888 100.496 12.988V15.256H80.1258V11.434H96.4218L94.2378 13.198C94.2378 11.826 94.0418 10.65 93.6498 9.67C93.2578 8.69 92.6698 7.948 91.8858 7.444C91.1298 6.912 90.1778 6.646 89.0298 6.646C87.8538 6.646 86.8598 6.912 86.0478 7.444C85.2358 7.976 84.6198 8.76 84.1998 9.796C83.7798 10.804 83.5698 12.05 83.5698 13.534C83.5698 14.906 83.7658 16.11 84.1578 17.146C84.5498 18.154 85.1658 18.938 86.0058 19.498C86.8458 20.058 87.9378 20.338 89.2818 20.338C90.5138 20.338 91.5218 20.1 92.3058 19.624C93.0898 19.148 93.6218 18.56 93.9018 17.86H100.076C99.7398 19.4 99.0818 20.772 98.1018 21.976C97.1218 23.18 95.8898 24.118 94.4058 24.79C92.9218 25.462 91.2138 25.798 89.2818 25.798Z" fill="white"/>
<path d="M104.949 25V1.984H110.283V11.854H110.157C110.157 8.606 110.843 6.1 112.215 4.336C113.615 2.572 115.631 1.69 118.263 1.69H119.145V7.486H117.465C115.617 7.486 114.189 7.99 113.181 8.998C112.173 9.978 111.669 11.406 111.669 13.282V25H104.949Z" fill="white"/>
</svg>
