<svg width="307" height="27" viewBox="0 0 307 27" fill="none" xmlns="http://www.w3.org/2000/svg">
<path d="M16.968 25V18.196H15.834V10.804C15.834 9.628 15.554 8.746 14.994 8.158C14.434 7.57 13.538 7.276 12.306 7.276C11.69 7.276 10.878 7.29 9.87 7.318C8.862 7.346 7.826 7.388 6.762 7.444C5.698 7.5 4.732 7.556 3.864 7.612V1.942C4.508 1.886 5.264 1.83 6.132 1.774C7 1.718 7.896 1.676 8.82 1.64799C9.744 1.62 10.612 1.606 11.424 1.606C13.776 1.606 15.75 1.942 17.346 2.614C18.97 3.286 20.202 4.308 21.042 5.68C21.882 7.024 22.302 8.76 22.302 10.888V25H16.968ZM9.618 25.588C7.966 25.588 6.51 25.294 5.25 24.706C4.018 24.118 3.052 23.278 2.352 22.186C1.652 21.066 1.302 19.736 1.302 18.196C1.302 16.516 1.736 15.144 2.604 14.08C3.472 12.988 4.69 12.19 6.258 11.686C7.826 11.154 9.632 10.888 11.676 10.888H16.59V14.626H11.634C10.458 14.626 9.548 14.92 8.904 15.508C8.288 16.068 7.98 16.838 7.98 17.818C7.98 18.742 8.288 19.498 8.904 20.086C9.548 20.646 10.458 20.926 11.634 20.926C12.39 20.926 13.062 20.8 13.65 20.548C14.266 20.268 14.77 19.806 15.162 19.162C15.554 18.518 15.778 17.622 15.834 16.474L17.43 18.154C17.29 19.75 16.898 21.094 16.254 22.186C15.638 23.278 14.77 24.118 13.65 24.706C12.558 25.294 11.214 25.588 9.618 25.588Z" fill="white"/>
<path d="M28.0035 25V1.984H33.3375V11.854H32.9595C32.9595 9.502 33.2535 7.542 33.8415 5.974C34.4575 4.406 35.3815 3.23 36.6135 2.446C37.8455 1.662 39.3435 1.27 41.1075 1.27H41.4015C44.0895 1.27 46.1335 2.152 47.5335 3.916C48.9615 5.652 49.6755 8.298 49.6755 11.854V25H42.9555V11.476C42.9555 10.244 42.5915 9.236 41.8635 8.452C41.1355 7.668 40.1555 7.276 38.9235 7.276C37.6635 7.276 36.6415 7.682 35.8575 8.494C35.1015 9.278 34.7235 10.314 34.7235 11.602V25H28.0035Z" fill="white"/>
<path d="M64.1379 25.714C60.8619 25.714 58.2999 25.042 56.4519 23.698C54.6039 22.354 53.6239 20.464 53.5119 18.028H59.4759C59.5879 18.756 60.0219 19.414 60.7779 20.002C61.5619 20.562 62.7239 20.842 64.2639 20.842C65.4399 20.842 66.4059 20.646 67.1619 20.254C67.9459 19.834 68.3379 19.246 68.3379 18.49C68.3379 17.818 68.0439 17.286 67.4559 16.894C66.8679 16.474 65.8179 16.18 64.3059 16.012L62.4999 15.844C59.7279 15.564 57.6419 14.794 56.2419 13.534C54.8699 12.274 54.1839 10.664 54.1839 8.704C54.1839 7.08 54.5899 5.722 55.4019 4.63C56.2139 3.538 57.3339 2.712 58.7619 2.152C60.2179 1.592 61.8699 1.312 63.7179 1.312C66.6859 1.312 69.0799 1.97 70.8999 3.286C72.7199 4.574 73.6719 6.45 73.7559 8.914H67.7919C67.6799 8.158 67.2879 7.528 66.6159 7.024C65.9439 6.492 64.9499 6.226 63.6339 6.226C62.5979 6.226 61.7719 6.422 61.1559 6.814C60.5399 7.206 60.2319 7.738 60.2319 8.41C60.2319 9.054 60.4979 9.544 61.0299 9.88C61.5619 10.216 62.4299 10.454 63.6339 10.594L65.4399 10.762C68.2679 11.07 70.4659 11.854 72.0339 13.114C73.6019 14.374 74.3859 16.068 74.3859 18.196C74.3859 19.736 73.9659 21.08 73.1259 22.228C72.2859 23.348 71.0959 24.216 69.5559 24.832C68.0159 25.42 66.2099 25.714 64.1379 25.714Z" fill="white"/>
<path d="M89.2818 25.798C87.3218 25.798 85.5858 25.462 84.0738 24.79C82.5898 24.118 81.3438 23.222 80.3358 22.102C79.3558 20.954 78.5998 19.68 78.0678 18.28C77.5638 16.852 77.3118 15.396 77.3118 13.912V13.072C77.3118 11.532 77.5638 10.062 78.0678 8.662C78.5998 7.234 79.3558 5.96 80.3358 4.84C81.3158 3.72 82.5338 2.838 83.9898 2.194C85.4738 1.522 87.1538 1.186 89.0298 1.186C91.4938 1.186 93.5658 1.746 95.2458 2.866C96.9538 3.958 98.2558 5.4 99.1518 7.192C100.048 8.956 100.496 10.888 100.496 12.988V15.256H80.1258V11.434H96.4218L94.2378 13.198C94.2378 11.826 94.0418 10.65 93.6498 9.67C93.2578 8.69 92.6698 7.948 91.8858 7.444C91.1298 6.912 90.1778 6.646 89.0298 6.646C87.8538 6.646 86.8598 6.912 86.0478 7.444C85.2358 7.976 84.6198 8.76 84.1998 9.796C83.7798 10.804 83.5698 12.05 83.5698 13.534C83.5698 14.906 83.7658 16.11 84.1578 17.146C84.5498 18.154 85.1658 18.938 86.0058 19.498C86.8458 20.058 87.9378 20.338 89.2818 20.338C90.5138 20.338 91.5218 20.1 92.3058 19.624C93.0898 19.148 93.6218 18.56 93.9018 17.86H100.076C99.7398 19.4 99.0818 20.772 98.1018 21.976C97.1218 23.18 95.8898 24.118 94.4058 24.79C92.9218 25.462 91.2138 25.798 89.2818 25.798Z" fill="white"/>
<path d="M104.949 25V1.984H110.283V11.854H110.157C110.157 8.606 110.843 6.1 112.215 4.336C113.615 2.572 115.631 1.69 118.263 1.69H119.145V7.486H117.465C115.617 7.486 114.189 7.99 113.181 8.998C112.173 9.978 111.669 11.406 111.669 13.282V25H104.949Z" fill="white"/>
<path fill-rule="evenodd" clip-rule="evenodd" d="M15.968 26V24.2229C15.4362 24.765 14.8191 25.2211 14.1196 25.5889C12.847 26.273 11.3313 26.588 9.618 26.588C7.84704 26.588 6.24212 26.2725 4.82712 25.6122L4.81926 25.6085C3.42831 24.9447 2.31607 23.9829 1.51012 22.7257L1.50395 22.716C0.68908 21.4122 0.302002 19.8918 0.302002 18.196C0.302002 16.3412 0.783876 14.7318 1.82508 13.4529C2.835 12.1845 4.22869 11.2892 5.94434 10.7364C7.63495 10.164 9.55055 9.888 11.676 9.888H14.7537C14.656 9.39535 14.478 9.06624 14.2699 8.84765C13.9774 8.54053 13.4046 8.276 12.306 8.276C11.7032 8.276 10.9015 8.28973 9.89777 8.31761C8.89849 8.34537 7.87076 8.38703 6.81456 8.44262C5.75367 8.49845 4.79169 8.55423 3.92838 8.60992L2.864 8.67859V1.02518L3.77737 0.945757C4.4308 0.888937 5.19455 0.832399 6.06762 0.776072C6.94766 0.719296 7.85504 0.676779 8.78971 0.648455C9.72246 0.62019 10.6006 0.605997 11.424 0.605997C13.8632 0.605997 15.9775 0.953329 17.7314 1.69122C19.5288 2.43561 20.9324 3.58768 21.8925 5.15397C22.8587 6.70194 23.302 8.63689 23.302 10.888V26H15.968ZM17.346 2.614C15.75 1.942 13.776 1.606 11.424 1.606C10.612 1.606 9.744 1.62 8.82 1.64799C7.896 1.676 7 1.718 6.132 1.774C5.264 1.83 4.508 1.886 3.864 1.942V7.612C4.18401 7.59135 4.51735 7.57071 4.864 7.55006C5.45761 7.51471 6.09028 7.47935 6.762 7.444C7.826 7.388 8.862 7.346 9.87 7.318C10.878 7.29 11.69 7.276 12.306 7.276C13.538 7.276 14.434 7.57 14.994 8.158C15.3977 8.58188 15.6559 9.15854 15.7686 9.888C15.8122 10.1704 15.834 10.4758 15.834 10.804V10.888H11.676C9.632 10.888 7.826 11.154 6.258 11.686C4.69 12.19 3.472 12.988 2.604 14.08C1.736 15.144 1.302 16.516 1.302 18.196C1.302 19.736 1.652 21.066 2.352 22.186C3.052 23.278 4.018 24.118 5.25 24.706C6.51 25.294 7.966 25.588 9.618 25.588C11.214 25.588 12.558 25.294 13.65 24.706C14.6064 24.2039 15.3791 23.518 15.968 22.6483C16.0687 22.4996 16.164 22.3455 16.254 22.186C16.5426 21.6966 16.7806 21.1566 16.968 20.566V25H22.302V10.888C22.302 8.76 21.882 7.024 21.042 5.68C20.202 4.308 18.97 3.286 17.346 2.614ZM15.834 14.626H11.634C10.458 14.626 9.548 14.92 8.904 15.508C8.288 16.068 7.98 16.838 7.98 17.818C7.98 18.742 8.288 19.498 8.904 20.086C9.548 20.646 10.458 20.926 11.634 20.926C12.39 20.926 13.062 20.8 13.65 20.548C14.2551 20.273 14.7521 19.8223 15.1411 19.196C15.1481 19.1847 15.1551 19.1734 15.162 19.162C15.3299 18.8862 15.4669 18.5642 15.5732 18.196C15.6129 18.0582 15.6484 17.914 15.6795 17.7633C15.7595 17.3762 15.811 16.9464 15.834 16.474V14.626ZM14.834 15.626H11.634C10.6192 15.626 9.98182 15.878 9.57827 16.2465L9.57668 16.2479C9.20638 16.5846 8.98 17.0652 8.98 17.818C8.98 18.4849 9.18803 18.9666 9.57747 19.3462C9.98185 19.689 10.6225 19.926 11.634 19.926C12.2738 19.926 12.8048 19.8204 13.2458 19.6332C13.6546 19.4451 14.0101 19.1312 14.3078 18.642C14.5772 18.1995 14.7804 17.4972 14.834 16.449V15.626ZM27.0035 26V0.983997H34.3375V3.14032C34.8362 2.53812 35.4152 2.02326 36.0766 1.60234C37.4997 0.696753 39.1932 0.269999 41.1075 0.269999H41.4015C44.3256 0.269999 46.6844 1.24197 48.3114 3.28759C49.947 5.28058 50.6755 8.19735 50.6755 11.854V26H41.9555V11.476C41.9555 10.4554 41.661 9.70348 41.1307 9.13245C40.6212 8.58378 39.9237 8.276 38.9235 8.276C37.9001 8.276 37.1496 8.59541 36.5769 9.18859C36.0332 9.7527 35.7235 10.5227 35.7235 11.602V26H27.0035ZM35.8575 8.494C36.6415 7.682 37.6635 7.276 38.9235 7.276C40.1555 7.276 41.1355 7.668 41.8635 8.452C42.5915 9.236 42.9555 10.244 42.9555 11.476V25H49.6755V11.854C49.6755 8.298 48.9615 5.652 47.5335 3.916C46.1335 2.152 44.0895 1.27 41.4015 1.27H41.1075C39.3435 1.27 37.8455 1.662 36.6135 2.446C35.6768 3.04209 34.9181 3.8648 34.3375 4.91411C34.1545 5.24489 33.9891 5.59818 33.8415 5.974C33.6384 6.5155 33.4704 7.10375 33.3375 7.73876V1.984H28.0035V25H34.7235V11.602C34.7235 10.314 35.1015 9.278 35.8575 8.494ZM52.4649 17.028H60.3339L60.4643 17.8759C60.5263 18.279 60.7704 18.7246 61.3751 19.1995C61.9173 19.5793 62.8316 19.842 64.2639 19.842C65.3338 19.842 66.1261 19.6631 66.6957 19.3693C67.2188 19.0874 67.3379 18.8039 67.3379 18.49C67.3379 18.1725 67.2282 17.944 66.9012 17.726L66.8878 17.7171L66.8747 17.7077C66.5115 17.4483 65.6899 17.1727 64.2044 17.0069L62.3994 16.839C59.5126 16.5474 57.1903 15.7329 55.573 14.2773L55.5655 14.2706C53.9754 12.8103 53.1839 10.9275 53.1839 8.704C53.1839 6.90782 53.6358 5.32923 54.5995 4.03329C55.5369 2.77267 56.8174 1.84041 58.3969 1.22102L58.403 1.21863C59.9925 0.607277 61.7694 0.311998 63.7179 0.311998C66.8272 0.311998 69.4446 1.00123 71.4819 2.47274C73.5836 3.96206 74.6621 6.14343 74.7554 8.87993L74.7906 9.914H66.9292L66.8027 9.06055C66.7333 8.59215 66.5001 8.18713 66.0159 7.824L66.0055 7.81615L65.9952 7.80804C65.5724 7.47334 64.839 7.226 63.6339 7.226C62.7121 7.226 62.0945 7.40206 61.6928 7.65766C61.3355 7.88507 61.2319 8.1138 61.2319 8.41C61.2319 8.72068 61.3302 8.8869 61.5639 9.03451C61.8982 9.24565 62.5768 9.46345 63.7382 9.59938L65.5404 9.76702L65.5482 9.76788C68.4908 10.0884 70.8941 10.9152 72.6603 12.3345C74.4799 13.7966 75.3859 15.7852 75.3859 18.196C75.3859 19.9298 74.9089 21.4848 73.933 22.8185L73.926 22.828C72.9571 24.1199 71.6059 25.0891 69.9273 25.7605L69.92 25.7634L69.9126 25.7662C68.2337 26.4073 66.3018 26.714 64.1379 26.714C60.7389 26.714 57.9424 26.0185 55.8638 24.5067C53.7517 22.9707 52.6379 20.7899 52.513 18.0739L52.4649 17.028ZM63.6339 10.594C62.4299 10.454 61.5619 10.216 61.0299 9.88C60.4979 9.544 60.2319 9.054 60.2319 8.41C60.2319 7.738 60.5399 7.206 61.1559 6.814C61.7719 6.422 62.5979 6.226 63.6339 6.226C64.9499 6.226 65.9439 6.492 66.6159 7.024C67.2879 7.528 67.6799 8.158 67.7919 8.914H73.7559C73.7442 8.56915 73.7154 8.23581 73.6697 7.914C73.3885 5.9364 72.4652 4.39373 70.8999 3.286C69.0799 1.97 66.6859 1.312 63.7179 1.312C61.8699 1.312 60.2179 1.592 58.7619 2.152C57.3339 2.712 56.2139 3.538 55.4019 4.63C54.5899 5.722 54.1839 7.08 54.1839 8.704C54.1839 10.664 54.8699 12.274 56.2419 13.534C57.6419 14.794 59.7279 15.564 62.4999 15.844L64.3059 16.012C65.8179 16.18 66.8679 16.474 67.4559 16.894C68.0439 17.286 68.3379 17.818 68.3379 18.49C68.3379 19.246 67.9459 19.834 67.1619 20.254C66.4059 20.646 65.4399 20.842 64.2639 20.842C62.7239 20.842 61.5619 20.562 60.7779 20.002C60.0219 19.414 59.5879 18.756 59.4759 18.028H53.5119C53.5278 18.3722 53.5609 18.7056 53.6114 19.028C53.9182 20.9873 54.8651 22.5439 56.4519 23.698C58.2999 25.042 60.8619 25.714 64.1379 25.714C66.2099 25.714 68.0159 25.42 69.5559 24.832C71.0959 24.216 72.2859 23.348 73.1259 22.228C73.9659 21.08 74.3859 19.736 74.3859 18.196C74.3859 16.068 73.6019 14.374 72.0339 13.114C70.4659 11.854 68.2679 11.07 65.4399 10.762L63.6339 10.594ZM83.6677 25.7038L83.6613 25.701C82.0619 24.9767 80.7002 24.0017 79.5925 22.771L79.5838 22.7612L79.5753 22.7513C78.5213 21.5167 77.7061 20.1434 77.133 18.6352L77.1288 18.6241L77.1248 18.6128C76.5839 17.0801 76.3118 15.5117 76.3118 13.912V13.072C76.3118 11.4206 76.5825 9.83571 77.1269 8.32328L77.1307 8.31287C77.7039 6.77419 78.5216 5.3948 79.5833 4.18149C80.665 2.94521 82.0034 1.97971 83.5817 1.28107C85.2124 0.543461 87.0348 0.185997 89.0298 0.185997C91.6436 0.185997 93.9167 0.780676 95.7925 2.02859C97.6458 3.21539 99.0684 4.79042 100.045 6.74163C101.015 8.65385 101.496 10.7415 101.496 12.988V16.256H84.9153C84.9682 16.4398 85.027 16.617 85.0915 16.7878C85.4146 17.6164 85.9051 18.229 86.5605 18.6659C87.19 19.0856 88.0711 19.338 89.2818 19.338C90.3917 19.338 91.2042 19.123 91.7868 18.7692C92.4267 18.3808 92.79 17.9469 92.9734 17.4886L93.2248 16.86H101.318L101.053 18.0732C100.684 19.764 99.958 21.2797 98.8774 22.6073C97.7948 23.9373 96.4362 24.9683 94.8183 25.701C93.1829 26.4415 91.33 26.798 89.2818 26.798C87.2074 26.798 85.3289 26.4421 83.6677 25.7038ZM84.1578 17.146C84.0504 16.862 83.9576 16.5653 83.8796 16.256C83.7989 15.9362 83.734 15.6028 83.6849 15.256H100.496V12.988C100.496 10.888 100.048 8.956 99.1518 7.192C98.2558 5.4 96.9538 3.958 95.2458 2.866C93.5658 1.746 91.4938 1.186 89.0298 1.186C87.1538 1.186 85.4738 1.522 83.9898 2.194C82.5338 2.838 81.3158 3.72 80.3358 4.84C79.3558 5.96 78.5998 7.234 78.0678 8.662C77.5638 10.062 77.3118 11.532 77.3118 13.072V13.912C77.3118 15.396 77.5638 16.852 78.0678 18.28C78.5998 19.68 79.3558 20.954 80.3358 22.102C81.3438 23.222 82.5898 24.118 84.0738 24.79C85.5858 25.462 87.3218 25.798 89.2818 25.798C91.2138 25.798 92.9218 25.462 94.4058 24.79C95.8898 24.118 97.1218 23.18 98.1018 21.976C98.8644 21.0391 99.4321 20.0004 99.8047 18.86C99.9109 18.5349 100.001 18.2016 100.076 17.86H93.9018C93.6218 18.56 93.0898 19.148 92.3058 19.624C91.5218 20.1 90.5138 20.338 89.2818 20.338C87.9378 20.338 86.8458 20.058 86.0058 19.498C85.1658 18.938 84.5498 18.154 84.1578 17.146ZM84.1998 9.796C84.6198 8.76 85.2358 7.976 86.0478 7.444C86.8598 6.912 87.8538 6.646 89.0298 6.646C90.1778 6.646 91.1298 6.912 91.8858 7.444C92.6698 7.948 93.2578 8.69 93.6498 9.67C93.7469 9.91265 93.8319 10.1673 93.905 10.434C93.9916 10.7504 94.0613 11.0837 94.1142 11.434H83.7363C83.7978 11.0814 83.8762 10.7481 83.9716 10.434C84.0392 10.2117 84.1152 9.99901 84.1998 9.796ZM85.0247 10.434H92.8622C92.8187 10.2982 92.7718 10.1674 92.7214 10.0414C92.396 9.22788 91.9315 8.66214 91.3451 8.28518L91.3275 8.27385L91.3103 8.2618C90.7598 7.87436 90.0221 7.646 89.0298 7.646C88.007 7.646 87.2134 7.87587 86.5959 8.28046C85.9788 8.68472 85.4821 9.29474 85.1266 10.1717L85.1229 10.1806C85.0887 10.2627 85.056 10.3471 85.0247 10.434ZM103.949 26V0.983997H111.283V3.91077C111.33 3.84715 111.377 3.78424 111.425 3.72206L111.431 3.71431C113.054 1.66946 115.383 0.689999 118.263 0.689999H120.145V8.486H117.465C115.8 8.486 114.657 8.9356 113.888 9.7051L113.878 9.71506C113.122 10.4502 112.669 11.5824 112.669 13.282V26H103.949ZM111.283 5.86443C110.783 6.92291 110.45 8.16119 110.283 9.57927V1.984H104.949V25H111.669V13.282C111.669 11.406 112.173 9.978 113.181 8.998C114.189 7.99 115.617 7.486 117.465 7.486H119.145V1.69H118.263C118.223 1.69 118.184 1.6902 118.145 1.69059C115.57 1.71665 113.594 2.59845 112.215 4.336C111.858 4.79519 111.547 5.30467 111.283 5.86443Z" fill="black"/>
<path d="M138.996 25L144.246 3.874H146.556L152.436 25H151.092L145.212 4.042H145.548L140.298 25H138.996ZM137.736 25V23.74H139.92V25H137.736ZM137.358 25L130.68 3.16H132.066L138.702 25H137.358ZM151.596 25V23.74H153.486V25H151.596ZM152.73 25L158.652 3.16H159.996L154.032 25H152.73Z" fill="white"/>
<path d="M179.83 25V18.448H179.578V10.216C179.578 8.34 179.074 6.87 178.066 5.806C177.086 4.742 175.392 4.21 172.984 4.21C172.256 4.21 171.528 4.238 170.8 4.294C170.1 4.322 169.428 4.364 168.784 4.42C168.168 4.476 167.594 4.546 167.062 4.63V3.37C167.622 3.286 168.196 3.216 168.784 3.16C169.372 3.076 169.96 3.02 170.548 2.992C171.164 2.964 171.752 2.95 172.312 2.95C174.496 2.95 176.204 3.244 177.436 3.832C178.696 4.42 179.592 5.274 180.124 6.394C180.656 7.514 180.922 8.9 180.922 10.552V25H179.83ZM171.976 25.588C170.604 25.588 169.33 25.336 168.154 24.832C167.006 24.3 166.082 23.53 165.382 22.522C164.71 21.514 164.374 20.282 164.374 18.826C164.374 17.51 164.682 16.362 165.298 15.382C165.942 14.402 166.852 13.646 168.028 13.114C169.204 12.582 170.632 12.316 172.312 12.316H179.662V13.492H172.06C170.016 13.492 168.448 13.982 167.356 14.962C166.264 15.942 165.718 17.244 165.718 18.868C165.718 20.604 166.32 21.962 167.524 22.942C168.728 23.922 170.24 24.412 172.06 24.412C173.236 24.412 174.384 24.188 175.504 23.74C176.624 23.292 177.562 22.536 178.318 21.472C179.102 20.38 179.522 18.924 179.578 17.104L180.25 17.776C180.194 19.54 179.774 21.01 178.99 22.186C178.206 23.334 177.198 24.188 175.966 24.748C174.762 25.308 173.432 25.588 171.976 25.588Z" fill="white"/>
<path d="M195.985 25.588C193.325 25.588 191.295 24.972 189.895 23.74C188.495 22.48 187.795 20.912 187.795 19.036H189.139C189.139 20.492 189.671 21.738 190.735 22.774C191.827 23.81 193.577 24.328 195.985 24.328C198.393 24.328 200.129 23.81 201.193 22.774C202.285 21.71 202.831 20.464 202.831 19.036C202.831 17.608 202.299 16.516 201.235 15.76C200.171 15.004 198.841 14.542 197.245 14.374L194.557 14.08C192.737 13.856 191.309 13.268 190.273 12.316C189.237 11.364 188.719 10.104 188.719 8.536C188.719 7.444 188.999 6.45 189.559 5.554C190.119 4.63 190.945 3.888 192.037 3.328C193.129 2.768 194.445 2.488 195.985 2.488C198.141 2.488 199.891 3.048 201.235 4.168C202.579 5.288 203.251 6.744 203.251 8.536H201.907C201.935 7.164 201.431 6.03 200.395 5.134C199.359 4.21 197.889 3.748 195.985 3.748C193.941 3.748 192.443 4.238 191.491 5.218C190.539 6.198 190.063 7.332 190.063 8.62C190.063 9.684 190.455 10.622 191.239 11.434C192.023 12.218 193.171 12.694 194.683 12.862L197.371 13.156C199.275 13.352 200.885 13.94 202.201 14.92C203.517 15.872 204.175 17.272 204.175 19.12C204.175 20.296 203.853 21.374 203.209 22.354C202.593 23.334 201.683 24.118 200.479 24.706C199.275 25.294 197.777 25.588 195.985 25.588Z" fill="white"/>
<path d="M220.12 25.672C218.3 25.672 216.718 25.35 215.374 24.706C214.03 24.062 212.924 23.194 212.056 22.102C211.188 20.982 210.53 19.736 210.082 18.364C209.662 16.964 209.452 15.536 209.452 14.08V13.828C209.452 12.4 209.662 11.014 210.082 9.67C210.53 8.326 211.188 7.108 212.056 6.016C212.952 4.924 214.044 4.07 215.332 3.454C216.648 2.81 218.16 2.488 219.868 2.488C221.996 2.488 223.802 2.978 225.286 3.958C226.798 4.938 227.946 6.212 228.73 7.78C229.542 9.32 229.948 10.958 229.948 12.694V14.038H210.166V12.778H229.234L228.688 13.198C228.688 11.434 228.338 9.838 227.638 8.41C226.938 6.982 225.93 5.848 224.614 5.008C223.298 4.168 221.716 3.748 219.868 3.748C217.852 3.748 216.158 4.224 214.786 5.176C213.442 6.128 212.42 7.374 211.72 8.914C211.048 10.454 210.712 12.134 210.712 13.954C210.712 15.802 211.048 17.524 211.72 19.12C212.42 20.688 213.456 21.962 214.828 22.942C216.228 23.922 217.992 24.412 220.12 24.412C222.416 24.412 224.264 23.88 225.664 22.816C227.064 21.724 227.932 20.408 228.268 18.868H229.612C229.332 20.184 228.772 21.36 227.932 22.396C227.092 23.404 226.014 24.202 224.698 24.79C223.41 25.378 221.884 25.672 220.12 25.672Z" fill="white"/>
<path d="M245.385 25.672C243.565 25.672 241.983 25.35 240.639 24.706C239.295 24.062 238.189 23.194 237.321 22.102C236.453 20.982 235.795 19.736 235.347 18.364C234.927 16.964 234.717 15.536 234.717 14.08V13.828C234.717 12.4 234.927 11.014 235.347 9.67C235.795 8.326 236.453 7.108 237.321 6.016C238.217 4.924 239.309 4.07 240.597 3.454C241.913 2.81 243.425 2.488 245.133 2.488C247.261 2.488 249.067 2.978 250.551 3.958C252.063 4.938 253.211 6.212 253.995 7.78C254.807 9.32 255.213 10.958 255.213 12.694V14.038H235.431V12.778H254.499L253.953 13.198C253.953 11.434 253.603 9.838 252.903 8.41C252.203 6.982 251.195 5.848 249.879 5.008C248.563 4.168 246.981 3.748 245.133 3.748C243.117 3.748 241.423 4.224 240.051 5.176C238.707 6.128 237.685 7.374 236.985 8.914C236.313 10.454 235.977 12.134 235.977 13.954C235.977 15.802 236.313 17.524 236.985 19.12C237.685 20.688 238.721 21.962 240.093 22.942C241.493 23.922 243.257 24.412 245.385 24.412C247.681 24.412 249.529 23.88 250.929 22.816C252.329 21.724 253.197 20.408 253.533 18.868H254.877C254.597 20.184 254.037 21.36 253.197 22.396C252.357 23.404 251.279 24.202 249.963 24.79C248.675 25.378 247.149 25.672 245.385 25.672Z" fill="white"/>
<path d="M261.915 25V3.118H263.007V11.896H262.503C262.503 10.132 262.783 8.55 263.343 7.15C263.931 5.75 264.799 4.644 265.947 3.832C267.095 2.992 268.551 2.572 270.315 2.572H270.399C272.135 2.572 273.563 2.978 274.683 3.79C275.831 4.574 276.671 5.666 277.203 7.066C277.763 8.466 278.043 10.076 278.043 11.896H277.371C277.371 10.132 277.651 8.55 278.211 7.15C278.771 5.75 279.625 4.644 280.773 3.832C281.949 2.992 283.419 2.572 285.183 2.572H285.267C287.003 2.572 288.445 2.978 289.593 3.79C290.741 4.574 291.595 5.666 292.155 7.066C292.715 8.466 292.995 10.076 292.995 11.896V25H291.651V11.56C291.651 9.32 291.105 7.472 290.013 6.016C288.949 4.56 287.325 3.832 285.141 3.832C282.929 3.832 281.207 4.574 279.975 6.058C278.743 7.542 278.127 9.432 278.127 11.728V25H276.783V11.56C276.783 9.32 276.237 7.472 275.145 6.016C274.081 4.56 272.457 3.832 270.273 3.832C268.061 3.832 266.339 4.574 265.107 6.058C263.875 7.542 263.259 9.432 263.259 11.728V25H261.915Z" fill="white"/>
<path fill-rule="evenodd" clip-rule="evenodd" d="M137.358 25L130.68 3.16H132.066L138.319 23.74H139.309L144.246 3.874H146.556L152.085 23.74H153.072L158.652 3.16H159.996L154.032 25H151.092L145.389 4.67469L140.298 25H137.358ZM136.618 26L129.328 2.16H132.807L138.767 21.7746L143.464 2.874H147.316L152.572 21.7604L157.887 2.16H161.306L154.796 26H150.334L145.444 8.57162L141.078 26H136.618ZM178.829 26V23.9517C178.127 24.6642 177.311 25.2343 176.383 25.6566C175.036 26.2825 173.561 26.588 171.975 26.588C170.478 26.588 169.069 26.3123 167.76 25.7511L167.746 25.7454L167.733 25.7393C166.429 25.135 165.365 24.251 164.56 23.0924L164.555 23.0846L164.549 23.0767C163.747 21.8737 163.373 20.439 163.373 18.826C163.373 17.3481 163.721 16.0102 164.451 14.8498L164.456 14.8413L164.462 14.8328C165.22 13.6788 166.285 12.8048 167.615 12.2029C168.954 11.5975 170.53 11.316 172.311 11.316H178.577V10.216C178.577 8.52142 178.126 7.3242 177.34 6.49374L177.33 6.48354C176.633 5.72706 175.29 5.21 172.983 5.21C172.281 5.21 171.579 5.23701 170.876 5.29105L170.858 5.29247L170.839 5.2932C170.154 5.3206 169.499 5.36161 168.872 5.41607C168.276 5.47033 167.724 5.53773 167.217 5.61776L166.061 5.80028V2.50881L166.913 2.38106C167.484 2.2954 168.068 2.22399 168.665 2.16673C169.276 2.08016 169.888 2.02227 170.5 1.99313L170.502 1.99303C171.132 1.96441 171.735 1.95 172.311 1.95C174.563 1.95 176.439 2.24958 177.862 2.92761C179.304 3.60126 180.383 4.61049 181.027 5.96494C181.64 7.25583 181.921 8.79858 181.921 10.552V26H178.829ZM177.435 3.832C176.203 3.244 174.495 2.95 172.311 2.95C171.751 2.95 171.163 2.964 170.547 2.992C169.959 3.02 169.371 3.076 168.783 3.16C168.195 3.216 167.621 3.286 167.061 3.37V4.63C167.38 4.57974 167.713 4.53449 168.061 4.49426C168.295 4.46725 168.536 4.44249 168.783 4.42C169.427 4.364 170.099 4.322 170.799 4.294C171.527 4.238 172.255 4.21 172.983 4.21C175.391 4.21 177.085 4.742 178.065 5.806C179.073 6.87 179.577 8.34 179.577 10.216V12.316H172.311C170.631 12.316 169.203 12.582 168.027 13.114C166.851 13.646 165.941 14.402 165.297 15.382C164.681 16.362 164.373 17.51 164.373 18.826C164.373 20.282 164.709 21.514 165.381 22.522C166.081 23.53 167.005 24.3 168.153 24.832C169.329 25.336 170.603 25.588 171.975 25.588C173.431 25.588 174.761 25.308 175.965 24.748C176.915 24.3163 177.732 23.7099 178.415 22.9288C178.559 22.7643 178.697 22.592 178.829 22.412C178.884 22.338 178.937 22.2626 178.989 22.186C179.024 22.1338 179.058 22.0811 179.092 22.0278C179.092 22.0265 179.093 22.0252 179.094 22.0238C179.399 21.5349 179.645 20.9973 179.829 20.4112V25H180.921V10.552C180.921 8.9 180.655 7.514 180.123 6.394C179.591 5.274 178.695 4.42 177.435 3.832ZM179.577 13.492H172.059C170.015 13.492 168.447 13.982 167.355 14.962C166.263 15.942 165.717 17.244 165.717 18.868C165.717 20.604 166.319 21.962 167.523 22.942C168.727 23.922 170.239 24.412 172.059 24.412C173.235 24.412 174.383 24.188 175.503 23.74C176.325 23.4113 177.049 22.9169 177.675 22.2567C177.853 22.0682 178.024 21.8662 178.187 21.6507C178.189 21.6479 178.191 21.645 178.193 21.6421C178.235 21.5863 178.277 21.5296 178.317 21.472C178.51 21.2037 178.681 20.9134 178.829 20.6011C178.999 20.2453 179.14 19.8609 179.252 19.448C179.338 19.1314 179.408 18.7981 179.46 18.448C179.462 18.4344 179.464 18.4207 179.466 18.407C179.497 18.1953 179.522 17.9774 179.541 17.7535C179.558 17.5424 179.571 17.3259 179.577 17.104V13.492ZM178.577 17.0883V14.492H172.059C170.165 14.492 168.871 14.9459 168.023 15.7062C167.167 16.4751 166.717 17.4941 166.717 18.868C166.717 20.3434 167.214 21.4004 168.155 22.1664C169.151 22.9771 170.428 23.412 172.059 23.412C173.105 23.412 174.127 23.2135 175.132 22.8115C176.059 22.4408 176.848 21.8135 177.502 20.8928L177.505 20.8888C178.137 20.0089 178.524 18.7707 178.577 17.0883ZM189.226 24.4833C187.617 23.0345 186.795 21.1968 186.795 19.036V18.036H190.139V19.036C190.139 20.2139 190.556 21.2018 191.428 22.0527C192.251 22.8299 193.691 23.328 195.985 23.328C198.287 23.328 199.706 22.8268 200.496 22.0575C201.409 21.1676 201.831 20.1745 201.831 19.036C201.831 17.8963 201.428 17.1239 200.656 16.5752C199.761 15.9392 198.605 15.5226 197.141 15.3685L197.137 15.3681L194.435 15.0726C192.471 14.8308 190.827 14.1828 189.597 13.0523C188.33 11.8882 187.719 10.3483 187.719 8.536C187.719 7.2655 188.047 6.08873 188.708 5.02979C189.376 3.92957 190.349 3.06981 191.581 2.43818C192.846 1.78966 194.326 1.488 195.985 1.488C198.319 1.488 200.313 2.09761 201.876 3.39978C203.454 4.71504 204.251 6.45555 204.251 8.536V9.536H200.887L200.908 8.5156C200.93 7.44039 200.552 6.59132 199.741 5.89036L199.735 5.88537L199.73 5.88029C198.935 5.17188 197.736 4.748 195.985 4.748C194.078 4.748 192.896 5.20692 192.209 5.91479C191.426 6.72068 191.063 7.60916 191.063 8.62C191.063 9.40531 191.341 10.0966 191.953 10.733C192.526 11.3025 193.429 11.7163 194.793 11.868C194.793 11.868 194.793 11.8681 194.794 11.8681L197.474 12.1613C197.475 12.1614 197.476 12.1615 197.477 12.1616C199.526 12.373 201.312 13.0125 202.793 14.1139C204.404 15.2818 205.175 17.0045 205.175 19.12C205.175 20.4872 204.798 21.7533 204.051 22.8947C203.321 24.0518 202.259 24.9495 200.918 25.6046C199.539 26.2779 197.881 26.588 195.985 26.588C193.185 26.588 190.882 25.9402 189.235 24.4907L189.226 24.4833ZM203.209 22.354C203.853 21.374 204.175 20.296 204.175 19.12C204.175 17.272 203.517 15.872 202.201 14.92C200.885 13.94 199.275 13.352 197.371 13.156L194.683 12.862C193.171 12.694 192.023 12.218 191.239 11.434C190.455 10.622 190.063 9.684 190.063 8.62C190.063 7.332 190.539 6.198 191.491 5.218C192.443 4.238 193.941 3.748 195.985 3.748C197.889 3.748 199.359 4.21 200.395 5.134C201.377 5.98284 201.881 7.04529 201.907 8.32135C201.909 8.39224 201.909 8.46379 201.907 8.536H203.251C203.251 8.19015 203.226 7.85682 203.176 7.536C202.967 6.19451 202.32 5.07184 201.235 4.168C199.891 3.048 198.141 2.488 195.985 2.488C194.445 2.488 193.129 2.768 192.037 3.328C190.945 3.888 190.119 4.63 189.559 5.554C188.999 6.45 188.719 7.444 188.719 8.536C188.719 10.104 189.237 11.364 190.273 12.316C191.309 13.268 192.737 13.856 194.557 14.08L197.245 14.374C198.841 14.542 200.171 15.004 201.235 15.76C202.299 16.516 202.831 17.608 202.831 19.036C202.831 20.464 202.285 21.71 201.193 22.774C200.129 23.81 198.393 24.328 195.985 24.328C193.577 24.328 191.827 23.81 190.735 22.774C189.671 21.738 189.139 20.492 189.139 19.036H187.795C187.795 19.3797 187.819 19.713 187.866 20.036C188.075 21.4762 188.752 22.7108 189.895 23.74C191.295 24.972 193.325 25.588 195.985 25.588C197.777 25.588 199.275 25.294 200.479 24.706C201.683 24.118 202.593 23.334 203.209 22.354ZM211.265 22.7146C210.326 21.5021 209.614 20.1535 209.131 18.6744L209.127 18.6629L209.124 18.6513C208.676 17.1585 208.452 15.6337 208.452 14.08V13.828C208.452 12.3003 208.677 10.8137 209.127 9.37173L209.13 9.36272L209.133 9.35377C209.617 7.90062 210.331 6.57872 211.273 5.39375L211.278 5.38768L211.283 5.38168C212.272 4.17633 213.479 3.23207 214.896 2.55373C216.369 1.8339 218.034 1.488 219.868 1.488C222.151 1.488 224.156 2.01509 225.833 3.12108C227.486 4.19301 228.754 5.59657 229.619 7.32309C230.36 8.73061 230.792 10.2182 230.912 11.778H232.174L230.948 12.7212V15.038H227.936L227.688 15.2289V15.038H211.754C211.858 16.3457 212.154 17.572 212.637 18.7219C213.265 20.1248 214.185 21.2534 215.405 22.1257C216.599 22.9601 218.148 23.412 220.12 23.412C222.261 23.412 223.875 22.9175 225.054 22.0236C226.291 21.0568 227.011 19.9361 227.291 18.6548L227.462 17.868H230.847L230.59 19.0761C230.277 20.5452 229.649 21.866 228.708 23.0258L228.7 23.0362C227.754 24.1718 226.549 25.0577 225.109 25.7016C223.663 26.3605 221.991 26.672 220.12 26.672C218.183 26.672 216.447 26.3291 214.941 25.6078C213.47 24.903 212.241 23.9428 211.273 22.7242L211.265 22.7146ZM225.664 22.816C224.264 23.88 222.416 24.412 220.12 24.412C217.992 24.412 216.228 23.922 214.828 22.942C213.456 21.962 212.42 20.688 211.72 19.12C211.181 17.8403 210.858 16.4797 210.751 15.038C210.727 14.7089 210.714 14.3756 210.712 14.038H229.948V12.694C229.948 12.3856 229.935 12.0802 229.909 11.778C229.791 10.3791 229.397 9.04639 228.73 7.78C227.946 6.212 226.798 4.938 225.286 3.958C223.802 2.978 221.996 2.488 219.868 2.488C218.16 2.488 216.648 2.81 215.332 3.454C214.044 4.07 212.952 4.924 212.056 6.016C211.188 7.108 210.53 8.326 210.082 9.67C209.866 10.3615 209.705 11.0642 209.6 11.778C209.551 12.1089 209.515 12.4423 209.49 12.778C209.464 13.1254 209.452 13.4754 209.452 13.828V14.08C209.452 14.4007 209.462 14.72 209.482 15.038C209.554 16.1637 209.754 17.2724 210.082 18.364C210.53 19.736 211.188 20.982 212.056 22.102C212.924 23.194 214.03 24.062 215.374 24.706C216.718 25.35 218.3 25.672 220.12 25.672C221.884 25.672 223.41 25.378 224.698 24.79C226.014 24.202 227.092 23.404 227.932 22.396C228.553 21.6299 229.021 20.7872 229.336 19.868C229.447 19.5442 229.539 19.2108 229.612 18.868H228.268C227.932 20.408 227.064 21.724 225.664 22.816ZM210.882 11.778C210.829 12.1061 210.788 12.4395 210.76 12.778H228.681C228.672 12.5129 228.656 12.2517 228.631 11.9944C228.624 11.9219 228.616 11.8498 228.608 11.778C228.468 10.5672 228.145 9.4445 227.638 8.41C226.938 6.982 225.93 5.848 224.614 5.008C223.298 4.168 221.716 3.748 219.868 3.748C217.852 3.748 216.158 4.224 214.786 5.176C213.442 6.128 212.42 7.374 211.72 8.914C211.324 9.82019 211.045 10.7749 210.882 11.778ZM212.633 9.32096C212.295 10.0969 212.049 10.9152 211.897 11.778H227.601C227.466 10.7164 227.177 9.74265 226.74 8.85016C226.119 7.58364 225.234 6.5903 224.076 5.85092C222.948 5.13107 221.561 4.748 219.868 4.748C218.014 4.748 216.531 5.18308 215.36 5.99489C214.168 6.83996 213.261 7.94227 212.633 9.32096ZM236.531 22.7146C235.591 21.5021 234.88 20.1535 234.397 18.6744L234.393 18.6629L234.389 18.6513C233.942 17.1585 233.717 15.6337 233.717 14.08V13.828C233.717 12.3003 233.942 10.8137 234.393 9.37173L234.396 9.36272L234.399 9.35377C234.883 7.90062 235.597 6.57872 236.538 5.39375L236.543 5.38768L236.548 5.38168C237.537 4.17633 238.745 3.23207 240.162 2.55373C241.635 1.8339 243.3 1.488 245.133 1.488C247.416 1.488 249.422 2.01509 251.099 3.12108C252.751 4.19301 254.019 5.59657 254.885 7.32309C255.625 8.73061 256.057 10.2182 256.178 11.778H257.439L256.213 12.7212V15.038H253.201L252.953 15.2289V15.038H237.02C237.124 16.3457 237.42 17.572 237.903 18.7219C238.531 20.1248 239.451 21.2534 240.671 22.1257C241.865 22.9601 243.414 23.412 245.385 23.412C247.527 23.412 249.14 22.9175 250.319 22.0236C251.557 21.0568 252.277 19.9361 252.556 18.6548L252.728 17.868H256.112L255.855 19.0761C255.543 20.5452 254.914 21.866 253.974 23.0258L253.966 23.0362C253.019 24.1718 251.814 25.0577 250.374 25.7016C248.929 26.3605 247.256 26.672 245.385 26.672C243.448 26.672 241.713 26.3291 240.207 25.6078C238.736 24.903 237.507 23.9428 236.538 22.7242L236.531 22.7146ZM250.929 22.816C249.529 23.88 247.681 24.412 245.385 24.412C243.257 24.412 241.493 23.922 240.093 22.942C238.721 21.962 237.685 20.688 236.985 19.12C236.446 17.8403 236.124 16.4797 236.017 15.038C235.992 14.7089 235.979 14.3756 235.977 14.038H255.213V12.694C255.213 12.3856 255.2 12.0802 255.175 11.778C255.056 10.3791 254.663 9.04639 253.995 7.78C253.211 6.212 252.063 4.938 250.551 3.958C249.067 2.978 247.261 2.488 245.133 2.488C243.425 2.488 241.913 2.81 240.597 3.454C239.309 4.07 238.217 4.924 237.321 6.016C236.453 7.108 235.795 8.326 235.347 9.67C235.131 10.3615 234.971 11.0642 234.866 11.778C234.817 12.1089 234.78 12.4423 234.756 12.778C234.73 13.1254 234.717 13.4754 234.717 13.828V14.08C234.717 14.4007 234.727 14.72 234.748 15.038C234.82 16.1637 235.02 17.2724 235.347 18.364C235.795 19.736 236.453 20.982 237.321 22.102C238.189 23.194 239.295 24.062 240.639 24.706C241.983 25.35 243.565 25.672 245.385 25.672C247.149 25.672 248.675 25.378 249.963 24.79C251.279 24.202 252.357 23.404 253.197 22.396C253.818 21.6299 254.286 20.7872 254.601 19.868C254.712 19.5442 254.804 19.2108 254.877 18.868H253.533C253.197 20.408 252.329 21.724 250.929 22.816ZM236.148 11.778C236.095 12.1061 236.054 12.4395 236.026 12.778H253.947C253.938 12.5129 253.921 12.2517 253.896 11.9944C253.889 11.9219 253.882 11.8498 253.874 11.778C253.734 10.5672 253.41 9.4445 252.903 8.41C252.203 6.982 251.195 5.848 249.879 5.008C248.563 4.168 246.981 3.748 245.133 3.748C243.117 3.748 241.423 4.224 240.051 5.176C238.707 6.128 237.685 7.374 236.985 8.914C236.59 9.82019 236.311 10.7749 236.148 11.778ZM237.899 9.32096C237.561 10.0969 237.315 10.9152 237.162 11.778H252.866C252.732 10.7164 252.443 9.74265 252.005 8.85016C251.384 7.58364 250.5 6.5903 249.341 5.85092C248.213 5.13107 246.826 4.748 245.133 4.748C243.28 4.748 241.797 5.18308 240.625 5.99489C239.434 6.83996 238.527 7.94227 237.899 9.32096ZM260.915 26V2.118H264.007V4.22634C264.411 3.77734 264.863 3.37466 265.363 3.02019C266.719 2.03067 268.393 1.572 270.315 1.572H270.399C272.286 1.572 273.93 2.01366 275.258 2.97213C276.318 3.69842 277.143 4.65021 277.736 5.80636C278.343 4.68243 279.162 3.74702 280.194 3.01692C281.573 2.0321 283.258 1.572 285.183 1.572H285.267C287.157 1.572 288.812 2.01513 290.164 2.96884C291.486 3.87395 292.457 5.12929 293.083 6.69461C293.699 8.23443 293.995 9.97445 293.995 11.896V26H290.651V11.56C290.651 9.48543 290.147 7.86216 289.213 6.616L289.205 6.60606C288.37 5.46335 287.082 4.832 285.141 4.832C283.177 4.832 281.757 5.47674 280.744 6.69675C279.688 7.96853 279.127 9.6189 279.127 11.728V26H275.783V11.56C275.783 9.48543 275.279 7.86216 274.345 6.616L274.337 6.60606C273.502 5.46335 272.214 4.832 270.273 4.832C268.309 4.832 266.889 5.47674 265.876 6.69675C264.82 7.96853 264.259 9.6189 264.259 11.728V26H260.915ZM289.593 3.79C288.445 2.978 287.003 2.572 285.267 2.572H285.183C283.419 2.572 281.949 2.992 280.773 3.832C279.998 4.38005 279.357 5.06198 278.85 5.87789C278.627 6.23632 278.431 6.62064 278.26 7.03077C278.243 7.07027 278.227 7.11002 278.211 7.15C278.009 7.65365 277.844 8.18087 277.715 8.73163C277.685 8.59847 277.653 8.46685 277.619 8.33676C277.504 7.89552 277.365 7.47193 277.203 7.066C277.198 7.05228 277.192 7.03859 277.187 7.02492C276.654 5.64462 275.82 4.56631 274.683 3.79C273.563 2.978 272.135 2.572 270.399 2.572H270.315C268.551 2.572 267.095 2.992 265.947 3.832C265.259 4.31887 264.671 4.91145 264.184 5.60972C264.123 5.69653 264.064 5.78498 264.007 5.87506C263.756 6.26882 263.534 6.6938 263.343 7.15C263.217 7.46556 263.105 7.79037 263.007 8.12443V3.118H261.915V25H263.259V11.728C263.259 10.2673 263.508 8.97085 264.007 7.83878C264.058 7.72295 264.112 7.60884 264.168 7.49646C264.17 7.49187 264.172 7.4873 264.175 7.48272C264.403 7.02856 264.674 6.60256 264.988 6.20473C265.027 6.15539 265.067 6.10648 265.107 6.058C266.339 4.574 268.061 3.832 270.273 3.832C272.457 3.832 274.081 4.56 275.145 6.016C275.85 6.95557 276.327 8.05837 276.577 9.32441C276.714 10.0203 276.783 10.7655 276.783 11.56V25H278.127V11.728C278.127 10.4945 278.305 9.37825 278.66 8.37914C278.771 8.06904 278.898 7.77024 279.043 7.48272C279.227 7.11523 279.44 6.76621 279.681 6.4356C279.775 6.30695 279.873 6.18106 279.975 6.058C281.207 4.574 282.929 3.832 285.141 3.832C287.325 3.832 288.949 4.56 290.013 6.016C291.105 7.472 291.651 9.32 291.651 11.56V25H292.995V11.896C292.995 10.076 292.715 8.466 292.155 7.066C291.595 5.666 290.741 4.574 289.593 3.79Z" fill="black"/>
<path d="M303 22H307V26H303V22Z" fill="#F13024"/>
</svg>
